<svg id="Layer_1" data-name="Layer 1" xmlns="http://www.w3.org/2000/svg" viewBox="0 0 512 512"><defs><style>.cls-1{fill:#231f20;}</style></defs><title>asi-logo</title><path class="cls-1" d="M169.33,355.87l-7.74-40.44h-51l-7.73,40.44H53.29l50.63-223.64h64l52,223.64Zm-51.69-77h36.57l-18.29-94.59Z"/><path class="cls-1" d="M314.9,310.16V269.72q0-4.56-2.11-6.5t-7.38-1.94h-31Q233,261.28,233,221.9v-51q0-38.67,44.31-38.68h42.89q44.31,0,44.31,38.68V200.1H314.2V177.94q0-8.77-9.5-8.79H292.75q-9.5,0-9.5,8.79v39.39c0,3,.71,5.22,2.11,6.5s3.87,1.94,7.39,1.94H323q22.5,0,32.35,9.67t9.84,28.66v52.74q0,39-44.3,39H278.33q-44.65,0-44.66-39V288H284v22.15q0,8.79,9.49,8.79h12Q314.9,319,314.9,310.16Z"/><path class="cls-1" d="M393.66,132.23h49.93V355.87H393.66Z"/></svg>