<svg
    className="icon"
    width="23px"
    height="23px"
    xmlns="http://www.w3.org/2000/svg"
    viewBox="0 0 30 30"
  >
    <g>
      <g>
        <path d="M14.7,0.5c-4.8,0-8.8,3.9-8.8,8.8c0,4.8,3.9,8.8,8.8,8.8s8.8-3.9,8.8-8.8C23.5,4.4,19.6,0.5,14.7,0.5z M14.7,15.5c-3.4,0-6.2-2.8-6.2-6.2c0-3.4,2.8-6.2,6.2-6.2c3.4,0,6.2,2.8,6.2,6.2C20.9,12.7,18.1,15.5,14.7,15.5z"></path>
      </g>
      <path d="M7.3,16l-1.6,1.6l-0.1-0.1c-0.5-0.5-1.3-0.5-1.8,0l-3,3c-0.5,0.5-0.5,1.3,0,1.8l0.9,0.9c0.2,0.2,0.5,0.4,0.9,0.4s0.6-0.1,0.9-0.4l3-3c0.5-0.5,0.5-1.3,0-1.8l-0.1-0.1L8,16.7c0.2-0.2,0.2-0.5,0-0.7C7.8,15.8,7.5,15.8,7.3,16z"></path>
    </g>
  </svg>