<svg id="Capa_1" enable-background="new 0 0 512 512" height="512" viewBox="0 0 512 512" width="512" xmlns="http://www.w3.org/2000/svg"><g><g><g><g><path d="m452.188 269.792c-6.561 0-12.584-4.336-14.438-10.964-2.231-7.978 2.427-16.255 10.405-18.486 19.928-5.572 33.845-23.396 33.845-43.342 0-8.284 6.716-15 15-15s15 6.716 15 15c0 33.348-22.931 63.051-55.764 72.234-1.35.378-2.711.558-4.048.558z" fill="#4895ff"/></g></g></g><g><g><path d="m474.12 270.63c-20.71-69.85-89.1-118.63-166.33-118.63h-261.79c-8.28 0-15 6.72-15 15 0 21.99 9.47 42.47 25.79 56.61-8.67 35.75-14.86 48.39-41.79 48.39-8.28 0-15 6.72-15 15v90c0 8.28 6.72 15 15 15 28.56 0 54.21 19.7 61 46.85l15.45 61.79c1.67 6.68 7.67 11.36 14.55 11.36h45c6.88 0 12.88-4.68 14.55-11.36l11.18-44.71c25.81 7.09 52.41 10.67 79.27 10.67s53.46-3.58 79.27-10.67l11.18 44.71c1.67 6.68 7.67 11.36 14.55 11.36h45c6.13 0 11.65-3.73 13.93-9.43l49.2-123.01c13.81-34.53 15.59-73.21 4.99-108.93z" fill="#7ed8f6"/></g></g><path d="m469.13 379.56-49.2 123.01c-2.28 5.7-7.8 9.43-13.93 9.43h-45c-6.88 0-12.88-4.68-14.55-11.36l-11.18-44.71c-25.81 7.09-52.41 10.67-79.27 10.67v-314.6h51.79c77.23 0 145.62 48.78 166.33 118.63 10.6 35.72 8.82 74.4-4.99 108.93z" fill="#6aa9ff"/><g><circle cx="106" cy="287" fill="#61729b" r="15"/></g><g><path d="m331 227c0 8.28-6.72 15-15 15h-120c-8.28 0-15-6.72-15-15s6.72-15 15-15h120c8.28 0 15 6.72 15 15z" fill="#61729b"/></g><path d="m331 227c0 8.28-6.72 15-15 15h-60v-30h60c8.28 0 15 6.72 15 15z" fill="#47568c"/><g><g><path d="m256 0c-33.08 0-60 26.92-60 60s26.92 60 60 60 60-26.92 60-60-26.92-60-60-60z" fill="#fabe2c"/><path d="m316 60c0 33.08-26.92 60-60 60v-120c33.08 0 60 26.92 60 60z" fill="#ff9100"/><g><circle cx="256" cy="60" fill="#fed843" r="30"/></g><path d="m286 60c0 16.54-13.46 30-30 30v-60c16.54 0 30 13.46 30 30z" fill="#fabe2c"/></g></g></g></svg>